<svg id="visual" viewBox="0 0 900 600" width="900" height="600" xmlns="http://www.w3.org/2000/svg" xmlns:xlink="http://www.w3.org/1999/xlink" version="1.1"><rect x="0" y="0" width="900" height="600" fill="#FA6500"></rect><path d="M0 219L25 246.8C50 274.7 100 330.3 150 359.2C200 388 250 390 300 362.7C350 335.3 400 278.7 450 254.3C500 230 550 238 600 254C650 270 700 294 750 317.2C800 340.3 850 362.7 875 373.8L900 385L900 601L875 601C850 601 800 601 750 601C700 601 650 601 600 601C550 601 500 601 450 601C400 601 350 601 300 601C250 601 200 601 150 601C100 601 50 601 25 601L0 601Z" fill="#ffffff" stroke-linecap="round" stroke-linejoin="miter"></path></svg>